<svg xmlns="http://www.w3.org/2000/svg" viewBox="0 0 284 95">
  <title>aphex</title>
  <!--
    Horizontal lockup — light mode
    Mark: 88×79 at (8,8)  ·  Wordmark: Inter 500 60px at (112, 47.5)
    For production use, convert <text> to outlines.
  -->

  <rect width="284" height="95" fill="#ffffff"/>

  <!-- mark -->
  <g transform="translate(8,8)" fill="#0d0d0d">
    <!-- col 0  h=3 -->
    <circle cx="8"  cy="53" r="3"/>
    <circle cx="8"  cy="62" r="3"/>
    <circle cx="8"  cy="71" r="3"/>
    <!-- col 1  h=6 -->
    <circle cx="20" cy="26" r="3"/>
    <circle cx="20" cy="35" r="3"/>
    <circle cx="20" cy="44" r="3"/>
    <circle cx="20" cy="53" r="3"/>
    <circle cx="20" cy="62" r="3"/>
    <circle cx="20" cy="71" r="3"/>
    <!-- col 2  h=4 -->
    <circle cx="32" cy="44" r="3"/>
    <circle cx="32" cy="53" r="3"/>
    <circle cx="32" cy="62" r="3"/>
    <circle cx="32" cy="71" r="3"/>
    <!-- col 3  h=8 -->
    <circle cx="44" cy="8"  r="3"/>
    <circle cx="44" cy="17" r="3"/>
    <circle cx="44" cy="26" r="3"/>
    <circle cx="44" cy="35" r="3"/>
    <circle cx="44" cy="44" r="3"/>
    <circle cx="44" cy="53" r="3"/>
    <circle cx="44" cy="62" r="3"/>
    <circle cx="44" cy="71" r="3"/>
    <!-- col 4  h=6 -->
    <circle cx="56" cy="26" r="3"/>
    <circle cx="56" cy="35" r="3"/>
    <circle cx="56" cy="44" r="3"/>
    <circle cx="56" cy="53" r="3"/>
    <circle cx="56" cy="62" r="3"/>
    <circle cx="56" cy="71" r="3"/>
    <!-- col 5  h=4 -->
    <circle cx="68" cy="44" r="3"/>
    <circle cx="68" cy="53" r="3"/>
    <circle cx="68" cy="62" r="3"/>
    <circle cx="68" cy="71" r="3"/>
    <!-- col 6  h=2 -->
    <circle cx="80" cy="62" r="3"/>
    <circle cx="80" cy="71" r="3"/>
  </g>

  <!-- wordmark -->
  <text
    x="112" y="47.5"
    font-family="'Inter', 'DM Sans', 'Helvetica Neue', system-ui, sans-serif"
    font-weight="500"
    font-size="60"
    fill="#0d0d0d"
    text-anchor="start"
    dominant-baseline="central"
    style="letter-spacing: -1px"
  >aphex</text>
</svg>
