<svg xmlns="http://www.w3.org/2000/svg" viewBox="0 0 88 79">
  <title>aphex mark</title>
  <!--
    7 columns · heights [3,6,4,8,6,4,2]
    dot r=3 · col-pitch=12 · row-pitch=9
    reads as a benchmark histogram / Pareto frontier
  -->

  <!-- col 0  x=8  h=3 -->
  <circle cx="8"  cy="53" r="3" fill="#0d0d0d"/>
  <circle cx="8"  cy="62" r="3" fill="#0d0d0d"/>
  <circle cx="8"  cy="71" r="3" fill="#0d0d0d"/>

  <!-- col 1  x=20  h=6 -->
  <circle cx="20" cy="26" r="3" fill="#0d0d0d"/>
  <circle cx="20" cy="35" r="3" fill="#0d0d0d"/>
  <circle cx="20" cy="44" r="3" fill="#0d0d0d"/>
  <circle cx="20" cy="53" r="3" fill="#0d0d0d"/>
  <circle cx="20" cy="62" r="3" fill="#0d0d0d"/>
  <circle cx="20" cy="71" r="3" fill="#0d0d0d"/>

  <!-- col 2  x=32  h=4 -->
  <circle cx="32" cy="44" r="3" fill="#0d0d0d"/>
  <circle cx="32" cy="53" r="3" fill="#0d0d0d"/>
  <circle cx="32" cy="62" r="3" fill="#0d0d0d"/>
  <circle cx="32" cy="71" r="3" fill="#0d0d0d"/>

  <!-- col 3  x=44  h=8  (tallest) -->
  <circle cx="44" cy="8"  r="3" fill="#0d0d0d"/>
  <circle cx="44" cy="17" r="3" fill="#0d0d0d"/>
  <circle cx="44" cy="26" r="3" fill="#0d0d0d"/>
  <circle cx="44" cy="35" r="3" fill="#0d0d0d"/>
  <circle cx="44" cy="44" r="3" fill="#0d0d0d"/>
  <circle cx="44" cy="53" r="3" fill="#0d0d0d"/>
  <circle cx="44" cy="62" r="3" fill="#0d0d0d"/>
  <circle cx="44" cy="71" r="3" fill="#0d0d0d"/>

  <!-- col 4  x=56  h=6 -->
  <circle cx="56" cy="26" r="3" fill="#0d0d0d"/>
  <circle cx="56" cy="35" r="3" fill="#0d0d0d"/>
  <circle cx="56" cy="44" r="3" fill="#0d0d0d"/>
  <circle cx="56" cy="53" r="3" fill="#0d0d0d"/>
  <circle cx="56" cy="62" r="3" fill="#0d0d0d"/>
  <circle cx="56" cy="71" r="3" fill="#0d0d0d"/>

  <!-- col 5  x=68  h=4 -->
  <circle cx="68" cy="44" r="3" fill="#0d0d0d"/>
  <circle cx="68" cy="53" r="3" fill="#0d0d0d"/>
  <circle cx="68" cy="62" r="3" fill="#0d0d0d"/>
  <circle cx="68" cy="71" r="3" fill="#0d0d0d"/>

  <!-- col 6  x=80  h=2 -->
  <circle cx="80" cy="62" r="3" fill="#0d0d0d"/>
  <circle cx="80" cy="71" r="3" fill="#0d0d0d"/>
</svg>
